<?xml version="1.0" encoding="UTF-8" standalone="no"?>
<!-- Created with Inkscape (http://www.inkscape.org/) -->

<svg
   viewBox="0 0 60 60"
   version="1.1"
   width="60"
   height="60"
   id="svg19312"
   inkscape:version="1.2.2 (b0a8486541, 2022-12-01)"
   sodipodi:docname="ideation.svg"
   xmlns:inkscape="http://www.inkscape.org/namespaces/inkscape"
   xmlns:sodipodi="http://sodipodi.sourceforge.net/DTD/sodipodi-0.dtd"
   xmlns="http://www.w3.org/2000/svg"
   xmlns:svg="http://www.w3.org/2000/svg"
   xmlns:rdf="http://www.w3.org/1999/02/22-rdf-syntax-ns#"
   xmlns:cc="http://creativecommons.org/ns#"
   xmlns:dc="http://purl.org/dc/elements/1.1/">
  <sodipodi:namedview
     id="namedview7"
     pagecolor="#eee"
     bordercolor="#666666"
     borderopacity="0.501961"
     inkscape:pageshadow="2"
     inkscape:pageopacity="0"
     inkscape:pagecheckerboard="0"
     inkscape:document-units="mm"
     showgrid="true"
     inkscape:showpageshadow="false"
     inkscape:deskcolor="#121520"
     inkscape:zoom="31.9999999"
     inkscape:cx="9.65625003"
     inkscape:cy="39.4218751"
     inkscape:window-width="1280"
     inkscape:window-height="735"
     inkscape:window-x="0"
     inkscape:window-y="0"
     inkscape:window-maximized="1"
     inkscape:current-layer="svg19312">
    <inkscape:grid
       type="xygrid"
       id="grid19302"
       color="#5d5d5d"
       opacity="0.360784314"
       empcolor="#656565"
       empopacity="0.121569"
       originx="0"
       originy="0" />
  </sodipodi:namedview>
  <defs
     id="defs2">
    <clipPath
       clipPathUnits="userSpaceOnUse"
       id="clipPath11319">
      <rect
         id="rect11321"
         width="22"
         height="3"
         x="52.5"
         y="-19.5"
         style="fill:#ffe179;fill-opacity:0.703285;stroke-width:1.12243" />
    </clipPath>
    <clipPath
       clipPathUnits="userSpaceOnUse"
       id="clipPath15964">
      <path
         id="path15966"
         style="fill:#ffe179;fill-opacity:0.703285;stroke-width:1.12243"
         d="m 52.5,-19.25 h 22 v 2.75 h -22 z"
         sodipodi:nodetypes="ccccc" />
    </clipPath>
  </defs>
  <metadata
     id="metadata6">
    <rdf:RDF>
      <cc:Work
         rdf:about="">
        <dc:creator>
          <cc:Agent>
            <dc:title>Andy Fitzsimon</dc:title>
          </cc:Agent>
        </dc:creator>
      </cc:Work>
    </rdf:RDF>
  </metadata>
  <g
     id="g9837"
     transform="translate(-52.5,20)"
     style="fill:#000000">
    <path
       id="path9819"
       style="fill:#000000"
       d="m 57.5,-20 -2,4 h 1 l 1,-2 1,2 1,-2 1,2 h 1 l -2,-4 -1,2 z"
       sodipodi:nodetypes="ccccccccccc" />
    <path
       d="m 52.5,-20 h 1 l 1,2 1,-2 h 1 l -2,4 -2,-4"
       id="path9821"
       style="fill:#000000" />
    <path
       d="m 65.5,-16 h 1 l 1,-2 1,2 h 1 l -2,-4 -2,4"
       id="path9825"
       style="fill:#000000" />
    <path
       d="m 68.5,-20 h 1 l 2,4 h -1 l -2,-4"
       id="path9827"
       sodipodi:nodetypes="ccccc"
       style="fill:#000000" />
    <circle
       id="circle9829"
       cx="65"
       cy="-18.5"
       r="0.5"
       style="fill:#000000" />
    <path
       id="path10561"
       d="m 60.25,-20.5 2,4 h 2 l 0.5,-1 h -2 l -1.5,-3 z"
       sodipodi:nodetypes="ccccccc"
       style="fill:#000000" />
  </g>
  <rect
     id="rect10078"
     width="22."
     height="3"
     x="0"
     y="0.5"
     style="fill:#ffe179;fill-opacity:0.703285;stroke-width:1.12243" />
  <g
     id="g11315"
     transform="translate(-52.5,30)"
     style="fill:#000000"
     clip-path="url(#clipPath11319)">
    <path
       id="path11303"
       style="fill:#000000"
       d="m 57,-20 -2,4 h 1 l 1,-2 1,2 1,-2 1,2 h 1 l -2,-4 -1,2 z"
       sodipodi:nodetypes="ccccccccccc" />
    <path
       d="m 52.5,-20 h 1 l 1,2 1,-2 h 1 l -2,4 -2,-4"
       id="path11305"
       style="fill:#000000" />
    <path
       d="m 62.5,-16 h 1 l 1,-2 1,2 h 1 l -2,-4 -2,4"
       id="path11307"
       style="fill:#000000" />
    <path
       d="m 65,-20 h 1 l 2,4 h -1 l -2,-4"
       id="path11309"
       sodipodi:nodetypes="ccccc"
       style="fill:#000000" />
    <circle
       id="circle11311"
       cx="62.5"
       cy="-18.5"
       r="0.5"
       style="fill:#000000" />
    <path
       id="path11313"
       d="m 59.25,-20.5 2,4 h 2 l 0.5,-1 h -2 l -1.5,-3 z"
       sodipodi:nodetypes="ccccccc"
       style="fill:#000000" />
  </g>
  <g
     id="g12061"
     transform="translate(-52.5,40)"
     style="fill:#000000"
     clip-path="url(#clipPath15964)">
    <path
       id="path12074"
       style="fill:#2c2c2c;fill-opacity:1"
       d="M 58.5 -20 L 57.75 -18.5 L 57.25 -17.5 L 57.75 -16.5 L 58.25 -17.5 L 58.5 -18 L 59.5 -16 L 60.5 -16 L 58.5 -20 z " />
    <path
       d="m 52.5,-20 h 1 l 1,2 1,-2 h 1 l -2,4 -2,-4"
       id="path12051"
       style="fill:#000000" />
    <path
       d="m 61.75,-16 h 1 l 1,-2 1,2 h 1 l -2,-4 -2,4"
       id="path12053"
       style="fill:#000000" />
    <path
       d="m 64.25,-20 h 1 l 2,4 h -1 l -2,-4"
       id="path12055"
       sodipodi:nodetypes="ccccc"
       style="fill:#000000" />
    <circle
       id="circle12057"
       cx="61.9000015"
       cy="-18.5"
       r="0.5"
       style="fill:#000000" />
    <path
       id="path12059"
       d="m 58.75,-20.5 2,4 h 1.75 l 0.5,-1 h -1.75 l -1.5,-3 z"
       sodipodi:nodetypes="ccccccc"
       style="fill:#000000" />
    <path
       style="fill:#000000"
       d="m 57,-20 -2,4 h 1 l 1,-2 0.25,0.5 0.5,-1 z"
       id="path12063" />
  </g>
  <g
     id="g15982"
     transform="translate(-52.5,48)"
     style="fill:#000000"
     clip-path="url(#clipPath15964)">
    <path
       id="path15968"
       style="fill:#414141;fill-opacity:1"
       d="m 58.5,-20 -0.75,1.5 -0.5,1 0.5,1 0.5,-1 0.25,-0.5 1,2 h 1 z" />
    <path
       d="m 52.5,-20 h 1 l 1,2 1,-2 h 1 l -2,4 -2,-4"
       id="path15970"
       style="fill:#000000" />
    <path
       d="m 64.25,-20 h 1 l 2,4 h -1 l -2,-4"
       id="path15974"
       sodipodi:nodetypes="ccccc"
       style="fill:#000000" />
    <circle
       id="circle15976"
       cx="61.9000015"
       cy="-18.5"
       r="0.5"
       style="fill:#000000" />
    <path
       id="path15978"
       d="m 58.75,-20.5 2,4 h 1.75 l 0.5,-1 h -1.75 l -1.5,-3 z"
       sodipodi:nodetypes="ccccccc"
       style="fill:#000000;fill-opacity:1" />
    <path
       style="fill:#000000"
       d="m 57,-20 -2,4 h 1 l 1,-2 0.25,0.5 0.5,-1 z"
       id="path15980" />
    <path
       d="m 61.75,-16 h 1 l 1,-2 1,2 h 1 l -2,-4 -2,4"
       id="path15972"
       style="fill:#414141;fill-opacity:1" />
  </g>
  <g
     id="g15998"
     transform="translate(-52.5,59)"
     style="fill:#000000"
     clip-path="none">
    <path
       id="path15984"
       style="fill:#414141;fill-opacity:1"
       d="M 58.125 -19.25 L 57.75 -18.5 L 57.25 -17.5 L 57.75 -16.5 L 58.25 -17.5 L 58.5 -18 L 59.25 -16.5 L 60.25 -16.5 L 58.875 -19.25 L 58.125 -19.25 z " />
    <path
       id="path15986"
       style="fill:#000000"
       d="M 52.875 -19.25 L 54.25 -16.5 L 54.75 -16.5 L 56.125 -19.25 L 55.125 -19.25 L 54.5 -18 L 53.875 -19.25 L 52.875 -19.25 z " />
    <path
       id="path15988"
       style="fill:#000000"
       d="M 64.625 -19.25 L 66 -16.5 L 67 -16.5 L 65.625 -19.25 L 64.625 -19.25 z " />
    <circle
       id="circle15990"
       cx="61.9000015"
       cy="-18.5"
       r="0.5"
       style="fill:#000000" />
    <path
       id="path15992"
       style="fill:#000000;fill-opacity:1"
       d="M 59.375 -19.25 L 60.75 -16.5 L 62.5 -16.5 L 63 -17.5 L 61.25 -17.5 L 60.375 -19.25 L 59.375 -19.25 z " />
    <path
       id="path15994"
       style="fill:#000000"
       d="M 56.625 -19.25 L 55.25 -16.5 L 56.25 -16.5 L 57 -18 L 57.25 -17.5 L 57.75 -18.5 L 57.375 -19.25 L 56.625 -19.25 z " />
    <path
       id="path15996"
       style="fill:#414141;fill-opacity:1"
       d="M 63.375 -19.25 L 62 -16.5 L 63 -16.5 L 63.75 -18 L 64.5 -16.5 L 65.5 -16.5 L 64.125 -19.25 L 63.375 -19.25 z " />
  </g>
</svg>
