<?xml version="1.0" encoding="UTF-8" standalone="no"?>
<!-- Created with Inkscape (http://www.inkscape.org/) -->

<svg
   viewBox="0 0 14.125 2.75"
   version="1.1"
   width="14.125"
   height="2.75"
   id="svg19312"
   inkscape:version="1.2.2 (b0a8486541, 2022-12-01)"
   sodipodi:docname="minfill.svg"
   xmlns:inkscape="http://www.inkscape.org/namespaces/inkscape"
   xmlns:sodipodi="http://sodipodi.sourceforge.net/DTD/sodipodi-0.dtd"
   xmlns="http://www.w3.org/2000/svg"
   xmlns:svg="http://www.w3.org/2000/svg"
   xmlns:rdf="http://www.w3.org/1999/02/22-rdf-syntax-ns#"
   xmlns:cc="http://creativecommons.org/ns#"
   xmlns:dc="http://purl.org/dc/elements/1.1/">
  <sodipodi:namedview
     id="namedview7"
     pagecolor="#121520"
     bordercolor="#ff0000"
     borderopacity="1"
     inkscape:pageshadow="2"
     inkscape:pageopacity="0"
     inkscape:pagecheckerboard="0"
     inkscape:document-units="mm"
     showgrid="true"
     inkscape:showpageshadow="false"
     inkscape:deskcolor="#121520"
     inkscape:zoom="32.0000001"
     inkscape:cx="8.09374999"
     inkscape:cy="2.421875"
     inkscape:window-width="1280"
     inkscape:window-height="735"
     inkscape:window-x="0"
     inkscape:window-y="0"
     inkscape:window-maximized="1"
     inkscape:current-layer="svg19312">
    <inkscape:grid
       type="xygrid"
       id="grid19302"
       color="#cbcbcb"
       opacity="0.156862745"
       empcolor="#c4c4c4"
       empopacity="0.325490196"
       originx="0"
       originy="0" />
  </sodipodi:namedview>
  <defs
     id="defs2" />
  <metadata
     id="metadata19587">
    <rdf:RDF>
      <cc:Work
         rdf:about="">
        <dc:creator>
          <cc:Agent>
            <dc:title>Andy Fitzsimon</dc:title>
          </cc:Agent>
        </dc:creator>
      </cc:Work>
    </rdf:RDF>
  </metadata>
  <path
     id="path15984"
     style="fill:#ffffff;fill-opacity:1"
     d="m 5.25,0 -0.375,0.75 -0.5,1 0.5,1 0.5,-1 0.25,-0.5 0.75,1.5 h 1 L 6,0 Z" />
  <path
     id="path15986"
     style="fill:#ffffff"
     d="m 0,0 1.375,2.75 h 0.5 L 3.25,0 h -1 L 1.625,1.25 1,0 Z" />
  <path
     id="path15988"
     style="fill:#ffffff"
     d="m 11.75,0 1.375,2.75 h 1 L 12.75,0 Z" />
  <circle
     id="circle15990"
     cx="9.02500153"
     cy="0.75"
     r="0.5"
     style="fill:#ffffff" />
  <path
     id="path15992"
     style="fill:#ffffff;fill-opacity:1"
     d="m 6.5,0 1.375,2.75 h 1.75 l 0.5,-1 H 8.375 L 7.5,0 Z" />
  <path
     id="path15994"
     style="fill:#ffffff"
     d="M 3.75,0 2.375,2.75 h 1 l 0.75,-1.5 0.25,0.5 0.5,-1 L 4.5,0 Z" />
  <path
     id="path15996"
     style="fill:#ffffff;fill-opacity:1"
     d="M 10.5,0 9.125,2.75 h 1 l 0.75,-1.5 0.75,1.5 h 1 L 11.25,0 Z" />
</svg>
