<svg xmlns="http://www.w3.org/2000/svg" viewBox="0 0 10.125 5.5" fill="rgb(240, 23, 161)">
  <path d="m5.25 0-.375.75-.5 1 .5 1 .5-1 .25-.5.5-1L6 0Zm-1.5 0L2.375 2.75h1l.75-1.5.5-1L4.5 0Zm.75 2.75L3.125 5.5h1l.75-1.5.5-1-.125-.25Zm3.375 0h1.75l.5-1h-2.75zm-6.5 0h.5L3.25 0h-1L1.125 2.25Zm4.375 0L7.125 5.5h1L6.75 2.75ZM6.5 0l.875 1.75h1L7.5 0ZM4.875 4l.75 1.5h1L5.375 3Zm-2.5-1.25h1l.75-1.5.25.5.5-1-.25-.5zM6.5 0l1.375 2.75h1.75l.5-1h-1.75L7.5 0ZM0 0l1.125 2.25.5-1L1 0Zm4.875 2.75.75-1.5.75 1.5h1L6.125.25z"/>
  <circle cx="2.625" cy="4" r=".5"/>
</svg>