
<svg
   viewBox="0 0 10.125 5.5"
   xmlns="http://www.w3.org/2000/svg">

 <defs>
    <linearGradient id="vg" 
      gradientTransform="rotate(73)">
      <stop offset="-20%" stop-color="rgb(80% 14% 55%)"/>
      <stop offset="55%" stop-color="rgb(98% 12% 65%)"/>
      <stop offset="55%" stop-color="rgb(70% 4% 45%)"/>
      <stop offset="100%" stop-color="rgb(98% 12% 65%)"/>

    </linearGradient>
    <linearGradient id="hg" 
      gradientTransform="rotate(88)">
      <stop offset="0%" stop-color="rgb(63% 0% 35%)"/>
      <stop offset="55%" stop-color="rgb(84% 0% 53%)"/>
            <stop offset="55%" stop-color="rgb(57% 0% 33%)"/>
            <stop offset="100%" stop-color="rgb(73% 0% 43%)"/>


    </linearGradient>
  </defs>
  
<g style="fill:url(#hg);">
  <path  d="m 4.875,2.75 0.75,-1.5 0.75,1.5 h 1 L 6.125,0.25 Z" />
  <path  d="m 0,0 1.125,2.25 0.5,-1 L 1,0 Z" />
  <path  d="m 6.5,0 1.375,2.75 h 1.75 l 0.5,-1 H 8.375 L 7.5,0 Z" />
  <path  d="m 2.375,2.75 h 1 l 0.75,-1.5 0.25,0.5 0.5,-1 -0.25,-0.5 z"  />
  <path  d="m 4.875,4 0.75,1.5 h 1 L 5.375,3 Z"  />
  <path d="m 6.5,0 0.875,1.75 h 1 L 7.5,0 Z" />

</g>
<g  style="fill:url(#vg)">
  <circle  cx="2.625"   cy="4"   r="0.5" />

  <path d="M 5.75,2.75 7.125,5.5 h 1 L 6.75,2.75 Z" />
  <path d="m 1.375,2.75 h 0.5 L 3.25,0 h -1 L 1.125,2.25 Z"  />
  <path  d="m 7.875,2.75 h 1.75 l 0.5,-1 h -2.75 z"  />
  <path d="M 4.5,2.75 3.125,5.5 h 1 L 4.875,4 5.375,3 5.25,2.75 Z"  />
  <path d="M 3.75,0 2.375,2.75 h 1 L 4.125,1.25 4.625,0.25 4.5,0 Z"  />
  <path d="m 5.25,0 -0.375,0.75 -0.5,1 0.5,1 0.5,-1 0.25,-0.5 0.5,-1 L 6,0 Z" />
</g>
</svg>
