
<svg
  xmlns="http://www.w3.org/2000/svg"
  viewBox="0 0 10.125 5.5">

  <svg xmlns="http://www.w3.org/2000/svg" viewBox="0 0 10.125 5.5">
  <defs>
    <linearGradient id="vg" 
      gradientTransform="rotate(90)">
      <stop offset="0%" stop-color="rgb(98% 12% 65%)"/>
      <stop offset="100%" stop-color="rgb(70% 4% 45%)"/>
    </linearGradient>
    <linearGradient id="hg" 
      gradientTransform="rotate(90)">
      <stop offset="0%" stop-color="rgb(73% 0% 43%)"/>
      <stop offset="100%" stop-color="rgb(84% 0% 53%)"/>
    </linearGradient>
  </defs>
  
<g fill="url(#hg)">
    <path d="m4.875 2.75.75-1.5.75 1.5h1L6.125.25Z"/>
    <path d="m0 0 1.125 2.25.5-1L1 0Z"/>
    <path d="m6.5 0 1.375 2.75h1.75l.5-1h-1.75L7.5 0Z"/>
    <path d="M2.375 2.75h1l.75-1.5.25.5.5-1-.25-.5z"/>
    <path d="m4.875 4 .75 1.5h1L5.375 3Z"/>
    <path d="m6.5 0 .875 1.75h1L7.5 0Z"/>
  </g>
  <g fill="url(#vg)">
    <circle cx="2.625" cy="4" r=".5"/>
    <path d="M5.75 2.75 7.125 5.5h1L6.75 2.75Z"/>
    <path d="M1.375 2.75h.5L3.25 0h-1L1.125 2.25Z"/>
    <path d="M7.875 2.75h1.75l.5-1h-2.75z"/>
    <path d="M4.5 2.75 3.125 5.5h1l.75-1.5.5-1-.125-.25Z"/>
    <path d="M3.75 0 2.375 2.75h1l.75-1.5.5-1L4.5 0Z"/>
    <path d="m5.25 0-.375.75-.5 1 .5 1 .5-1 .25-.5.5-1L6 0Z"/>
  </g>
</svg>
